<svg width="2101" height="925" xmlns="http://www.w3.org/2000/svg" xmlns:xlink="http://www.w3.org/1999/xlink" xml:space="preserve" overflow="hidden"><g transform="translate(-913 -624)"><text font-family="Century Gothic,Century Gothic_MSFontService,sans-serif" font-weight="400" font-size="440" transform="matrix(1 0 0 1 1177.46 1186)">PAG</text><text fill="#00CCFF" font-family="Century Gothic,Century Gothic_MSFontService,sans-serif" font-weight="400" font-size="440" transform="matrix(1 0 0 1 2147.41 1186)">O</text><text font-family="Century Gothic,Century Gothic_MSFontService,sans-serif" font-weight="400" font-size="440" transform="matrix(1 0 0 1 2530.11 1186)">S</text><path d="M2196.55 711.63 2252 849.578 2238.88 855.606 2170.31 723.687Z" stroke="#0099CC" stroke-width="6.875" stroke-miterlimit="8" fill="#0099CC" fill-rule="evenodd"/><path d="M2531.65 742.105 2447.15 864.436 2434.89 856.817 2507.12 726.868Z" stroke="#0099CC" stroke-width="6.875" stroke-miterlimit="8" fill="#0099CC" fill-rule="evenodd"/><path d="M2662.6 1120.2 2519.51 1079.86 2522.74 1065.79 2669.08 1092.06Z" stroke="#0099CC" stroke-width="6.875" stroke-miterlimit="8" fill="#0099CC" fill-rule="evenodd"/><path d="M2493.23 1340.15 2422.08 1209.61 2434.41 1202.09 2517.89 1325.12Z" stroke="#0099CC" stroke-width="6.875" stroke-miterlimit="8" fill="#0099CC" fill-rule="evenodd"/><path d="M2155.36 1319 2240.2 1196.91 2252.44 1204.56 2179.84 1334.31Z" stroke="#0099CC" stroke-width="6.875" stroke-miterlimit="8" fill="#0099CC" fill-rule="evenodd"/><path d="M1991.91 995.927 2139.91 1010.1 2139.23 1024.52 1990.56 1024.77Z" stroke="#0099CC" stroke-width="6.875" stroke-miterlimit="8" fill="#0099CC" fill-rule="evenodd"/></g></svg>