<svg width="2101" height="925" xmlns="http://www.w3.org/2000/svg" xmlns:xlink="http://www.w3.org/1999/xlink" xml:space="preserve" overflow="hidden"><g transform="translate(-2328 -4)"><text fill="#FFFFFF" font-family="Century Gothic,Century Gothic_MSFontService,sans-serif" font-weight="400" font-size="440" transform="matrix(1 0 0 1 2592.03 567)">PAG</text><text fill="#00CCFF" font-family="Century Gothic,Century Gothic_MSFontService,sans-serif" font-weight="400" font-size="440" transform="matrix(1 0 0 1 3561.98 567)">O</text><text fill="#FFFFFF" font-family="Century Gothic,Century Gothic_MSFontService,sans-serif" font-weight="400" font-size="440" transform="matrix(1 0 0 1 3944.68 567)">S</text><path d="M3611.12 92.2282 3666.57 230.176 3653.45 236.205 3584.88 104.286Z" stroke="#FFFFFF" stroke-width="6.875" stroke-miterlimit="8" fill="#00CCFF" fill-rule="evenodd"/><path d="M3946.22 122.703 3861.72 245.034 3849.46 237.416 3921.69 107.466Z" stroke="#FFFFFF" stroke-width="6.875" stroke-miterlimit="8" fill="#00CCFF" fill-rule="evenodd"/><path d="M4077.17 500.8 3934.07 460.454 3937.31 446.384 4083.65 472.661Z" stroke="#FFFFFF" stroke-width="6.875" stroke-miterlimit="8" fill="#00CCFF" fill-rule="evenodd"/><path d="M3907.8 720.75 3836.65 590.204 3848.98 582.688 3932.46 705.717Z" stroke="#FFFFFF" stroke-width="6.875" stroke-miterlimit="8" fill="#00CCFF" fill-rule="evenodd"/><path d="M3569.93 699.598 3654.77 577.506 3667.01 585.159 3594.41 714.905Z" stroke="#FFFFFF" stroke-width="6.875" stroke-miterlimit="8" fill="#00CCFF" fill-rule="evenodd"/><path d="M3406.48 376.525 3554.48 390.701 3553.8 405.123 3405.13 405.368Z" stroke="#FFFFFF" stroke-width="6.875" stroke-miterlimit="8" fill="#00CCFF" fill-rule="evenodd"/></g></svg>