<?xml version="1.0" encoding="UTF-8" standalone="no"?>
<!-- Created with Inkscape (http://www.inkscape.org/) -->

<svg
   width="210mm"
   height="297mm"
   viewBox="0 0 210 297"
   version="1.1"
   id="svg5"
   inkscape:export-filename="PAGOS_Logo_GO.svg"
   inkscape:export-xdpi="97.379875"
   inkscape:export-ydpi="97.379875"
   inkscape:version="1.2.2 (b0a8486541, 2022-12-01)"
   sodipodi:docname="PAGOS_Logo_New_FILE.svg"
   xmlns:inkscape="http://www.inkscape.org/namespaces/inkscape"
   xmlns:sodipodi="http://sodipodi.sourceforge.net/DTD/sodipodi-0.dtd"
   xmlns="http://www.w3.org/2000/svg"
   xmlns:svg="http://www.w3.org/2000/svg">
  <sodipodi:namedview
     id="namedview7"
     pagecolor="#ffffff"
     bordercolor="#999999"
     borderopacity="1"
     inkscape:showpageshadow="0"
     inkscape:pageopacity="0"
     inkscape:pagecheckerboard="0"
     inkscape:deskcolor="#d1d1d1"
     inkscape:document-units="mm"
     showgrid="false"
     inkscape:zoom="1.0169437"
     inkscape:cx="311.22667"
     inkscape:cy="538.86956"
     inkscape:window-width="1920"
     inkscape:window-height="1012"
     inkscape:window-x="0"
     inkscape:window-y="0"
     inkscape:window-maximized="1"
     inkscape:current-layer="layer1" />
  <defs
     id="defs2">
    <clipPath
       clipPathUnits="userSpaceOnUse"
       id="clipPath47259">
      <path
         style="display:inline;fill:none;fill-opacity:1;stroke:none;stroke-width:0.0566624"
         d="m 86.728218,130.7265 c -7.013758,-0.85239 -11.693694,-6.19112 -11.693694,-13.33982 0,-6.83757 4.339759,-12.06763 10.942039,-13.1868 3.725725,-0.63155 7.476136,0.0811 10.273517,1.95227 0.850114,0.56863 2.088227,1.74384 2.785041,2.64354 l 0.516216,0.66651 -1.370529,0.91341 c -0.753793,0.50238 -1.458235,0.97041 -1.565428,1.04007 l -0.194898,0.12666 -0.378036,-0.50838 c -0.460296,-0.619 -1.410341,-1.53815 -2.011463,-1.94603 -1.521463,-1.03239 -3.301683,-1.53492 -5.425978,-1.53169 -1.710216,0.003 -2.982671,0.29552 -4.402627,1.01348 -0.90285,0.4565 -1.52137,0.90461 -2.260052,1.63737 -1.300665,1.29024 -2.119955,2.83915 -2.573221,4.8648 -0.151979,0.6792 -0.173744,0.97345 -0.171217,2.31479 0.0024,1.29961 0.02852,1.65448 0.169032,2.30038 0.43752,2.01127 1.273058,3.60836 2.562158,4.89746 1.27176,1.27176 2.806698,2.08773 4.669185,2.48212 1.095573,0.232 2.918616,0.23061 4.022875,-0.003 2.591525,-0.54838 4.523301,-1.91173 7.426561,-5.24129 0.515025,-0.59065 0.94765,-1.10506 0.961393,-1.14313 0.01476,-0.0409 -0.601695,-0.0692 -1.505771,-0.0692 -0.841917,0 -2.396392,-0.0223 -3.454386,-0.0495 l -1.92363,-0.0495 v -1.56213 -1.56214 h 6.071349 6.071346 l -0.0397,1.55542 c -0.043,1.68478 -0.18446,9.89642 -0.18446,10.70489 v 0.49537 l -1.10566,-0.0456 c -0.60811,-0.0251 -1.38435,-0.0647 -1.72499,-0.088 l -0.61933,-0.0424 0.046,-0.79901 c 0.1001,-1.73956 0.21524,-5.63395 0.16656,-5.63393 -0.0492,3e-5 -0.63162,0.6351 -2.933702,3.19881 -2.321729,2.58559 -3.782356,3.46773 -6.435402,3.88664 -0.909659,0.14363 -3.858575,0.21109 -4.709118,0.10772 z"
         id="path47261" />
    </clipPath>
  </defs>
  <g
     inkscape:label="Layer 1"
     inkscape:groupmode="layer"
     id="layer1">
    <g
       id="g52820">
      <g
         aria-label="PAGOS"
         id="text236-1"
         style="font-weight:bold;font-size:37.688px;font-family:'Atkinson Hyperlegible Next';-inkscape-font-specification:'Atkinson Hyperlegible Next Bold';fill:none;fill-opacity:0.477706;stroke:#000000;stroke-width:0.53416">
        <path
           d="m 32.215108,104.16598 v 26.3816 h 4.447184 v -9.98732 h 3.504984 c 5.728576,0 9.497376,-3.16579 9.497376,-8.21599 0,-5.05019 -3.7688,-8.17829 -9.497376,-8.17829 z m 7.952168,3.91955 c 3.052728,0 5.08788,1.46983 5.08788,4.25874 0,2.8266 -2.035152,4.29644 -5.08788,4.29644 h -3.504984 v -8.55518 z"
           style="font-weight:500;font-family:'Jost*';-inkscape-font-specification:'Jost* Medium';fill:#6ca7ff;fill-opacity:1"
           id="path429"
           inkscape:label="P" />
        <path
           d="m 69.300077,130.54758 h 5.050192 L 61.423285,102.69615 48.533989,130.54758 h 5.012504 l 3.01504,-6.78384 h 9.685816 z m -7.876792,-18.91938 3.618048,8.36674 h -7.198408 z"
           style="font-weight:500;font-family:'Jost*';-inkscape-font-specification:'Jost* Medium';fill:#6ca7ff;fill-opacity:1"
           id="path431"
           inkscape:label="A" />
        <path
           d="m 91.849886,120.83206 6.595995,0.0881 c -2.712901,3.10519 -5.138555,6.04705 -9.849555,6.04705 -5.200944,0 -9.158184,-3.84418 -9.158184,-9.61044 0,-5.76627 4.070304,-9.53507 9.158184,-9.53507 3.655736,0 6.256208,1.65828 7.72604,4.14568 l 3.618048,-2.41203 c -2.336656,-3.65573 -6.180832,-5.87933 -11.344088,-5.87933 -7.952168,0 -13.869184,5.61552 -13.869184,13.68075 0,8.06523 5.803988,13.78022 13.793808,13.75612 6.932497,-0.0209 7.895251,-2.43746 12.0233,-6.91801 -0.0833,2.55273 -0.2449,6.08194 -0.2449,6.08194 l 4.0277,0.16331 0.22343,-13.37688 H 91.849886 Z"
           style="font-weight:500;font-family:'Jost*';-inkscape-font-specification:'Jost* Medium';display:none"
           id="path433"
           inkscape:label="G"
           sodipodi:nodetypes="ccsssccssscccccc" />
        <path
           d="m 91.469656,117.35678 c 0,7.87679 5.76626,13.75612 13.680744,13.75612 7.95217,0 13.71843,-5.87933 13.71843,-13.75612 0,-7.87679 -5.84164,-13.68075 -13.71843,-13.68075 -7.801414,0 -13.680744,5.80396 -13.680744,13.68075 z m 4.711,0 c 0,-5.42707 3.73111,-9.38431 8.969744,-9.38431 5.31401,0 8.96975,3.95724 8.96975,9.38431 0,5.42707 -3.69343,9.38431 -8.96975,9.38431 -5.238634,0 -8.969744,-3.95724 -8.969744,-9.38431 z"
           style="font-weight:500;font-family:'Jost*';-inkscape-font-specification:'Jost* Medium';display:inline"
           id="path435"
           inkscape:label="O"
           sodipodi:nodetypes="ssssssssss" />
        <path
           d="m 124.97427,122.03009 -3.31654,2.33665 c 1.73364,3.61805 5.46476,6.74616 10.10038,6.74616 4.48487,0 8.7813,-2.93967 8.7813,-7.8768 0,-4.59793 -3.54267,-6.82152 -6.70846,-7.91447 -4.25875,-1.46984 -5.99239,-2.78892 -5.99239,-4.82407 0,-1.50752 1.13064,-2.8266 3.58036,-2.8266 2.67584,0 4.25874,1.73365 5.35169,3.69343 l 3.58036,-2.03516 c -1.35677,-2.75122 -4.18337,-5.6532 -8.85668,-5.6532 -4.74868,0 -8.29136,2.90198 -8.29136,7.12304 0,4.89944 4.4095,6.78383 7.00997,7.72603 3.35423,1.24371 5.61551,2.14822 5.61551,5.0502 0,2.11052 -1.62058,3.54267 -4.0703,3.54267 -2.97735,0 -5.08788,-1.99747 -6.78384,-5.08788 z"
           style="font-weight:500;font-family:'Jost*';-inkscape-font-specification:'Jost* Medium';display:inline;fill:#6ca7ff;fill-opacity:1"
           id="path437"
           inkscape:label="S"
           sodipodi:nodetypes="ccsscssccsscssc" />
      </g>
      <g
         id="g52809">
        <path
           style="display:inline;fill:#6ca7ff;fill-opacity:1;stroke:none;stroke-width:0.214157"
           d="m 390.82855,494.0488 c -14.47933,-1.63589 -27.44518,-9.36295 -35.31559,-21.04647 -10.09567,-14.98691 -11.50433,-35.87616 -3.53535,-52.42605 3.24509,-6.73936 7.84982,-12.4753 13.63619,-16.98609 19.05358,-14.85331 48.11376,-14.02586 66.08616,1.8817 12.53964,11.09897 18.46983,28.59043 15.78483,46.5583 -3.786,25.33578 -24.28548,42.5528 -50.37855,42.31174 -2.20616,-0.0204 -5.03112,-0.15229 -6.27769,-0.29313 z m 14.03912,-14.68843 c 6.6429,-1.35374 11.8216,-4.01004 16.51149,-8.46922 5.15366,-4.90014 8.36977,-10.73843 10.14526,-18.417 0.83283,-3.60179 1.03547,-11.36389 0.402,-15.39866 -1.25256,-7.97795 -4.25922,-14.36538 -9.22154,-19.59047 -6.6441,-6.99594 -15.00842,-10.42666 -25.36016,-10.40175 -9.82993,0.0237 -17.46982,3.0195 -24.13319,9.4634 -8.82534,8.53466 -12.58113,21.78186 -9.98687,35.22505 2.98427,15.4641 14.60292,26.39928 29.91077,28.15125 3.15569,0.36117 8.44352,0.1076 11.73224,-0.5626 z"
           id="path2123"
           transform="scale(0.26458333)"
           inkscape:export-filename="PAGOS_Logo_GO.svg"
           inkscape:export-xdpi="97.379875"
           inkscape:export-ydpi="97.379875" />
        <path
           d="m 91.947449,120.81791 6.595995,0.0881 c -2.712901,3.10519 -5.138555,6.04705 -9.849555,6.04705 -5.200944,0 -9.158184,-3.84418 -9.158184,-9.61044 0,-5.76627 4.070304,-9.53507 9.158184,-9.53507 2.082948,0 3.823311,0.53835 5.207146,1.46168 0.579598,-0.93463 0.307967,-0.50549 3.091567,-3.041 -2.182899,-1.63996 -4.966028,-2.56636 -8.298713,-2.56636 -7.952168,0 -13.869184,5.61552 -13.869184,13.68075 0,8.06523 5.803988,13.78022 13.793808,13.75612 6.932497,-0.0209 7.895251,-2.43746 12.023297,-6.91801 -0.0833,2.55273 -0.2449,6.08194 -0.2449,6.08194 l 4.0277,0.16331 0.22343,-13.37688 H 91.947449 Z"
           style="font-weight:500;font-size:37.688px;font-family:'Jost*';-inkscape-font-specification:'Jost* Medium';display:inline;fill:#ffff00;fill-opacity:1;stroke:none;stroke-width:0.53416"
           id="path433-3"
           inkscape:label="G"
           sodipodi:nodetypes="ccsssccssscccccc"
           sodipodi:insensitive="true" />
        <path
           d="m 91.750558,120.83192 6.595995,0.0881 c -2.712901,3.10519 -5.138555,6.04705 -9.849555,6.04705 -5.200944,0 -9.158184,-3.84418 -9.158184,-9.61044 0,-5.76627 4.070304,-9.53507 9.158184,-9.53507 2.186123,0 4.013825,0.47338 5.429101,1.48208 0.817875,-1.1777 2.046659,-2.24342 2.94859,-2.9869 -2.201313,-1.69934 -4.980968,-2.64086 -8.377691,-2.64086 -7.952168,0 -13.869184,5.61552 -13.869184,13.68075 0,8.06523 5.803988,13.78022 13.793808,13.75612 6.932497,-0.0209 7.895251,-2.43746 12.023298,-6.91801 -0.0833,2.55273 -0.2449,6.08194 -0.2449,6.08194 l 4.0277,0.16331 0.22343,-13.37688 H 91.750558 Z"
           style="font-weight:500;font-size:37.688px;font-family:'Jost*';-inkscape-font-specification:'Jost* Medium';display:inline;fill:none;fill-opacity:0.477706;stroke:#000000;stroke-width:0.53416"
           id="path433-9"
           inkscape:label="G"
           sodipodi:nodetypes="ccsssccssscccccc" />
      </g>
    </g>
    <g
       id="g52820-9"
       transform="translate(2.8627532,59.321697)"
       inkscape:export-filename="PAGOS_Logo_New_Bright.svg"
       inkscape:export-xdpi="97.379875"
       inkscape:export-ydpi="97.379875">
      <g
         aria-label="PAGOS"
         id="text236-1-0"
         style="font-weight:bold;font-size:37.688px;font-family:'Atkinson Hyperlegible Next';-inkscape-font-specification:'Atkinson Hyperlegible Next Bold';fill:none;fill-opacity:0.477706;stroke:#000000;stroke-width:0.53416">
        <path
           d="m 32.215108,104.16598 v 26.3816 h 4.447184 v -9.98732 h 3.504984 c 5.728576,0 9.497376,-3.16579 9.497376,-8.21599 0,-5.05019 -3.7688,-8.17829 -9.497376,-8.17829 z m 7.952168,3.91955 c 3.052728,0 5.08788,1.46983 5.08788,4.25874 0,2.8266 -2.035152,4.29644 -5.08788,4.29644 h -3.504984 v -8.55518 z"
           style="font-weight:500;font-family:'Jost*';-inkscape-font-specification:'Jost* Medium';fill:#6ca7ff;fill-opacity:1;stroke:#ffffff"
           id="path429-3"
           inkscape:label="P" />
        <path
           d="m 69.300077,130.54758 h 5.050192 L 61.423285,102.69615 48.533989,130.54758 h 5.012504 l 3.01504,-6.78384 h 9.685816 z m -7.876792,-18.91938 3.618048,8.36674 h -7.198408 z"
           style="font-weight:500;font-family:'Jost*';-inkscape-font-specification:'Jost* Medium';fill:#6ca7ff;fill-opacity:1;stroke:#ffffff"
           id="path431-0"
           inkscape:label="A" />
        <path
           d="m 91.849886,120.83206 6.595995,0.0881 c -2.712901,3.10519 -5.138555,6.04705 -9.849555,6.04705 -5.200944,0 -9.158184,-3.84418 -9.158184,-9.61044 0,-5.76627 4.070304,-9.53507 9.158184,-9.53507 3.655736,0 6.256208,1.65828 7.72604,4.14568 l 3.618048,-2.41203 c -2.336656,-3.65573 -6.180832,-5.87933 -11.344088,-5.87933 -7.952168,0 -13.869184,5.61552 -13.869184,13.68075 0,8.06523 5.803988,13.78022 13.793808,13.75612 6.932497,-0.0209 7.895251,-2.43746 12.0233,-6.91801 -0.0833,2.55273 -0.2449,6.08194 -0.2449,6.08194 l 4.0277,0.16331 0.22343,-13.37688 H 91.849886 Z"
           style="font-weight:500;font-family:'Jost*';-inkscape-font-specification:'Jost* Medium';display:none;stroke:#ffffff"
           id="path433-33"
           inkscape:label="G"
           sodipodi:nodetypes="ccsssccssscccccc" />
        <path
           d="m 91.469656,117.35678 c 0,7.87679 5.76626,13.75612 13.680744,13.75612 7.95217,0 13.71843,-5.87933 13.71843,-13.75612 0,-7.87679 -5.84164,-13.68075 -13.71843,-13.68075 -7.801414,0 -13.680744,5.80396 -13.680744,13.68075 z m 4.711,0 c 0,-5.42707 3.73111,-9.38431 8.969744,-9.38431 5.31401,0 8.96975,3.95724 8.96975,9.38431 0,5.42707 -3.69343,9.38431 -8.96975,9.38431 -5.238634,0 -8.969744,-3.95724 -8.969744,-9.38431 z"
           style="font-weight:500;font-family:'Jost*';-inkscape-font-specification:'Jost* Medium';display:inline;stroke:#ffffff"
           id="path435-7"
           inkscape:label="O"
           sodipodi:nodetypes="ssssssssss" />
        <path
           d="m 124.97427,122.03009 -3.31654,2.33665 c 1.73364,3.61805 5.46476,6.74616 10.10038,6.74616 4.48487,0 8.7813,-2.93967 8.7813,-7.8768 0,-4.59793 -3.54267,-6.82152 -6.70846,-7.91447 -4.25875,-1.46984 -5.99239,-2.78892 -5.99239,-4.82407 0,-1.50752 1.13064,-2.8266 3.58036,-2.8266 2.67584,0 4.25874,1.73365 5.35169,3.69343 l 3.58036,-2.03516 c -1.35677,-2.75122 -4.18337,-5.6532 -8.85668,-5.6532 -4.74868,0 -8.29136,2.90198 -8.29136,7.12304 0,4.89944 4.4095,6.78383 7.00997,7.72603 3.35423,1.24371 5.61551,2.14822 5.61551,5.0502 0,2.11052 -1.62058,3.54267 -4.0703,3.54267 -2.97735,0 -5.08788,-1.99747 -6.78384,-5.08788 z"
           style="font-weight:500;font-family:'Jost*';-inkscape-font-specification:'Jost* Medium';display:inline;fill:#6ca7ff;fill-opacity:1;stroke:#ffffff"
           id="path437-9"
           inkscape:label="S"
           sodipodi:nodetypes="ccsscssccsscssc" />
      </g>
      <g
         id="g52809-4">
        <path
           style="display:inline;fill:#6ca7ff;fill-opacity:1;stroke:none;stroke-width:0.214157"
           d="m 390.82855,494.0488 c -14.47933,-1.63589 -27.44518,-9.36295 -35.31559,-21.04647 -10.09567,-14.98691 -11.50433,-35.87616 -3.53535,-52.42605 3.24509,-6.73936 7.84982,-12.4753 13.63619,-16.98609 19.05358,-14.85331 48.11376,-14.02586 66.08616,1.8817 12.53964,11.09897 18.46983,28.59043 15.78483,46.5583 -3.786,25.33578 -24.28548,42.5528 -50.37855,42.31174 -2.20616,-0.0204 -5.03112,-0.15229 -6.27769,-0.29313 z m 14.03912,-14.68843 c 6.6429,-1.35374 11.8216,-4.01004 16.51149,-8.46922 5.15366,-4.90014 8.36977,-10.73843 10.14526,-18.417 0.83283,-3.60179 1.03547,-11.36389 0.402,-15.39866 -1.25256,-7.97795 -4.25922,-14.36538 -9.22154,-19.59047 -6.6441,-6.99594 -15.00842,-10.42666 -25.36016,-10.40175 -9.82993,0.0237 -17.46982,3.0195 -24.13319,9.4634 -8.82534,8.53466 -12.58113,21.78186 -9.98687,35.22505 2.98427,15.4641 14.60292,26.39928 29.91077,28.15125 3.15569,0.36117 8.44352,0.1076 11.73224,-0.5626 z"
           id="path2123-9"
           transform="scale(0.26458333)"
           inkscape:export-filename="PAGOS_Logo_GO.svg"
           inkscape:export-xdpi="97.379875"
           inkscape:export-ydpi="97.379875" />
        <path
           d="m 91.947449,120.81791 6.595995,0.0881 c -2.712901,3.10519 -5.138555,6.04705 -9.849555,6.04705 -5.200944,0 -9.158184,-3.84418 -9.158184,-9.61044 0,-5.76627 4.070304,-9.53507 9.158184,-9.53507 2.082948,0 3.823311,0.53835 5.207146,1.46168 0.579598,-0.93463 0.307967,-0.50549 3.091567,-3.041 -2.182899,-1.63996 -4.966028,-2.56636 -8.298713,-2.56636 -7.952168,0 -13.869184,5.61552 -13.869184,13.68075 0,8.06523 5.803988,13.78022 13.793808,13.75612 6.932497,-0.0209 7.895251,-2.43746 12.023297,-6.91801 -0.0833,2.55273 -0.2449,6.08194 -0.2449,6.08194 l 4.0277,0.16331 0.22343,-13.37688 H 91.947449 Z"
           style="font-weight:500;font-size:37.688px;font-family:'Jost*';-inkscape-font-specification:'Jost* Medium';display:inline;fill:#ffff00;fill-opacity:1;stroke:#ffffff;stroke-width:0.53416"
           id="path433-3-9"
           inkscape:label="G"
           sodipodi:nodetypes="ccsssccssscccccc"
           sodipodi:insensitive="true" />
        <path
           d="m 91.750558,120.83192 6.595995,0.0881 c -2.712901,3.10519 -5.138555,6.04705 -9.849555,6.04705 -5.200944,0 -9.158184,-3.84418 -9.158184,-9.61044 0,-5.76627 4.070304,-9.53507 9.158184,-9.53507 2.186123,0 4.013825,0.47338 5.429101,1.48208 0.817875,-1.1777 2.046659,-2.24342 2.94859,-2.9869 -2.201313,-1.69934 -4.980968,-2.64086 -8.377691,-2.64086 -7.952168,0 -13.869184,5.61552 -13.869184,13.68075 0,8.06523 5.803988,13.78022 13.793808,13.75612 6.932497,-0.0209 7.895251,-2.43746 12.023298,-6.91801 -0.0833,2.55273 -0.2449,6.08194 -0.2449,6.08194 l 4.0277,0.16331 0.22343,-13.37688 H 91.750558 Z"
           style="font-weight:500;font-size:37.688px;font-family:'Jost*';-inkscape-font-specification:'Jost* Medium';display:inline;fill:none;fill-opacity:0.477706;stroke:#ffffff;stroke-width:0.53416"
           id="path433-9-1"
           inkscape:label="G"
           sodipodi:nodetypes="ccsssccssscccccc"
           inkscape:export-filename="PAGOS_Logo_New_Bright.svg"
           inkscape:export-xdpi="97.379875"
           inkscape:export-ydpi="97.379875" />
      </g>
    </g>
    <text
       xml:space="preserve"
       style="font-style:normal;font-variant:normal;font-weight:500;font-stretch:normal;font-size:14.1111px;font-family:'Jost*';-inkscape-font-specification:'Jost* Medium';fill:#000080;fill-opacity:1;stroke:none;stroke-width:0.2"
       x="45.477871"
       y="51.133156"
       id="text58323"><tspan
         sodipodi:role="line"
         id="tspan58321"
         style="stroke-width:0.2"
         x="45.477871"
         y="51.133156">PAGOS</tspan></text>
  </g>
</svg>
