<svg xmlns="http://www.w3.org/2000/svg" xmlns:xlink="http://www.w3.org/1999/xlink" xml:space="preserve" overflow="hidden" viewBox="263.53 57.11 1573.43 690.41"><g transform="translate(-131 -15)"><text font-family="Century Gothic,Century Gothic_MSFontService,sans-serif" font-weight="400" font-size="440" transform="matrix(1 0 0 1 395.342 577)">PAG</text><text fill="#FFFFFF" font-family="Century Gothic,Century Gothic_MSFontService,sans-serif" font-weight="400" font-size="440" transform="matrix(1 0 0 1 1365.29 577)">O</text><text font-family="Century Gothic,Century Gothic_MSFontService,sans-serif" font-weight="400" font-size="440" transform="matrix(1 0 0 1 1748 577)">S</text><path d="M1414.44 103.05 1469.89 240.997 1456.77 247.026 1388.2 115.107Z" stroke="#FFFFFF" stroke-width="6.875" stroke-miterlimit="8" fill="#00B0F0" fill-rule="evenodd"/><path d="M1749.53 133.525 1665.03 255.856 1652.77 248.237 1725 118.287Z" stroke="#FFFFFF" stroke-width="6.875" stroke-miterlimit="8" fill="#00B0F0" fill-rule="evenodd"/><path d="M1880.49 511.621 1737.39 471.275 1740.63 457.205 1886.96 483.482Z" stroke="#FFFFFF" stroke-width="6.875" stroke-miterlimit="8" fill="#00B0F0" fill-rule="evenodd"/><path d="M1711.12 731.571 1639.97 601.026 1652.29 593.509 1735.77 716.538Z" stroke="#FFFFFF" stroke-width="6.875" stroke-miterlimit="8" fill="#00B0F0" fill-rule="evenodd"/><path d="M1373.24 710.419 1458.08 588.328 1470.32 595.981 1397.73 725.726Z" stroke="#FFFFFF" stroke-width="6.875" stroke-miterlimit="8" fill="#00B0F0" fill-rule="evenodd"/><path d="M1209.8 387.347 1357.79 401.522 1357.12 415.944 1208.44 416.19Z" stroke="#FFFFFF" stroke-width="6.875" stroke-miterlimit="8" fill="#00B0F0" fill-rule="evenodd"/></g></svg>